# xmcd CD database file
#
# Track frame offsets:
#	150
#	24312
#	61242
#	88680
#	120430
#	153545
#	187757
#	215865
#	238025
#
# Disc length: 3385 seconds
#
# Revision: 2
# Processed by: cddbd v1.5.2PL0 Copyright (c) Steve Scherf et al.
# Submitted via: CDex 1.70beta2
#
DISCID=700d3709
DTITLE=Ravi Coltrane - From the Round Box
DYEAR=2000
DGENRE=Jazz
TTITLE0=Social Drones
TTITLE1=The Chartreuse Mean
TTITLE2=Word Order
TTITLE3=Blues a la Carte
TTITLE4=Monk´s Mood
TTITLE5=Irony
TTITLE6=The Blessing
TTITLE7=Consequence
TTITLE8=Between Lines
EXTD=YEAR: 2000
EXTT0=
EXTT1=
EXTT2=
EXTT3=
EXTT4=
EXTT5=
EXTT6=
EXTT7=
EXTT8=
PLAYORDER=
